<?xml version="1.0" encoding="UTF-8"?>
<svg id="_Слой_1" data-name="Слой 1" xmlns="http://www.w3.org/2000/svg" viewBox="0 0 101 66">
  <defs>
    <style>
      .cls-1 {
        fill: #ff8c00;
      }
    </style>
  </defs>
  <path class="cls-1" d="m62.02,25.6v11.96c0,.18-.15.33-.33.33h-2.44c-.18,0-.33-.15-.33-.33v-11.96c0-.18.15-.33.33-.33h2.44c.18,0,.33.15.33.33Zm19.04-.33h-2.73c-.14,0-.27.09-.31.23l-2.16,7.07-2.38-7.08c-.04-.13-.17-.22-.31-.22h-1.91c-.14,0-.26.09-.31.22l-2.38,7.08-2.16-7.07c-.04-.14-.17-.23-.31-.23h-2.73c-.1,0-.2.05-.26.13-.06.08-.08.19-.04.29l4.02,11.97c.04.13.17.22.31.22h2.17c.14,0,.26-.09.31-.22l2.35-6.99,2.35,6.99c.04.13.17.22.31.22h2.17c.14,0,.26-.09.31-.22l4.02-11.97c.03-.1.02-.21-.04-.29-.06-.08-.16-.13-.26-.13Zm4.11,0h-2.44c-.18,0-.33.15-.33.33v11.96c0,.18.15.33.33.33h2.44c.18,0,.33-.15.33-.33v-11.96c0-.18-.15-.33-.33-.33Zm-27.66,12.2c.14.16.03.41-.19.41h-2.99c-.12,0-.24-.05-.32-.15l-.51-.61c-1.03.67-2.26,1.06-3.59,1.06-3.65,0-6.61-2.97-6.61-6.61s2.97-6.61,6.61-6.61,6.61,2.97,6.61,6.61c0,1.31-.39,2.54-1.05,3.57l2.03,2.33Zm-5.93-2.67l-1.31-1.58c-.14-.17-.02-.42.2-.42h2.74c.13-.39.2-.8.2-1.24,0-1.98-1.47-3.68-3.49-3.68s-3.49,1.7-3.49,3.68,1.47,3.66,3.49,3.66c.61,0,1.17-.16,1.66-.43Zm-15.77,2.61c.07.5-.08.71-.24.71-.17,0-.39-.2-.64-.6-.25-.39-.34-.85-.22-1.07.08-.15.26-.22.47-.13.42.16.59.81.63,1.1Zm-2.34,1.09c.51.43.66.94.39,1.3-.15.2-.39.31-.68.31s-.57-.11-.77-.28c-.46-.4-.6-1.05-.29-1.42.12-.14.31-.22.54-.22.28,0,.57.12.82.33Zm-.85,4.13c2.18,0,4.55.75,7.16,3.07.26.23.61-.06.38-.35-2.57-3.25-4.95-3.87-7.33-4.39-2.9-.64-4.4-2.27-5.44-4.07-.21-.36-.3-.29-.32.16-.02.56.02,1.3.14,2.03h0c-.12,0-.23,0-.35,0-4.15,0-7.52-3.37-7.52-7.52s3.37-7.52,7.52-7.52,7.52,3.37,7.52,7.52c0,.3-.01.59-.05.87-.55-.1-1.63-.11-2.39-.04-.29.02-.25.16-.03.2,2.49.45,4.19,1.99,4.58,4.79,0,.06.09.08.13.03,1.02-1.71,1.61-3.71,1.61-5.84,0-6.28-5.09-11.38-11.38-11.38s-11.38,5.09-11.38,11.38,5.09,11.38,11.38,11.38c1.67,0,3.32-.32,5.75-.32Z"/>
</svg>